<svg width="44" height="44" viewBox="0 0 44 44" fill="none" xmlns="http://www.w3.org/2000/svg">
<rect width="44" height="44" rx="22" fill="black"/>
<path fill-rule="evenodd" clip-rule="evenodd" d="M20.7088 12.5255C20.9489 12.5862 21.3698 12.8066 21.9426 13.4983C22.3928 14.0421 23.2229 14.137 23.7966 13.7103C24.3703 13.2835 24.4705 12.4968 24.0202 11.953C23.0889 10.8282 21.7484 9.80534 20.133 10.0317C19.5514 10.1131 19.137 10.4435 18.891 10.6885C18.6253 10.953 18.4014 11.2731 18.2136 11.5899C17.8355 12.2282 17.4977 13.0364 17.2184 13.8584C16.6683 15.4775 16.251 17.4344 16.2788 18.6888C16.2941 19.3799 16.8976 19.9283 17.6267 19.9138C18.3558 19.8993 18.9345 19.3273 18.9192 18.6363C18.9003 17.7843 19.2203 16.1325 19.7323 14.6257C19.9841 13.8847 20.2586 13.2507 20.5164 12.8155C20.5913 12.689 20.6563 12.5941 20.7088 12.5255ZM27.6043 16.4512C25.9715 16.7844 24.3022 17.3477 23.5332 17.7891C22.9094 18.1472 22.0974 17.9582 21.7196 17.367C21.3418 16.7758 21.5412 16.0062 22.165 15.6481C23.2973 14.9981 25.294 14.3622 27.0485 14.0042C27.9392 13.8224 28.8466 13.6955 29.6189 13.6868C30.0023 13.6825 30.4067 13.7062 30.7813 13.7921C31.1282 13.8715 31.6372 14.0464 32.0024 14.4831C33.0169 15.6959 32.7525 17.3076 32.1904 18.6345C31.9187 19.2759 31.1497 19.5871 30.473 19.3295C29.7962 19.072 29.4679 18.3432 29.7396 17.7018C30.0853 16.8858 30.0762 16.4301 30.0116 16.2026C29.9226 16.1939 29.8035 16.188 29.6504 16.1897C29.1238 16.1957 28.4073 16.2874 27.6043 16.4512ZM15.324 16.3807C15.4271 17.065 14.9253 17.6989 14.2034 17.7966C13.2849 17.9208 12.873 18.1561 12.6976 18.3229C12.734 18.4003 12.7882 18.501 12.8663 18.6258C13.1351 19.055 13.5771 19.5973 14.1283 20.1745C15.2492 21.3481 16.5985 22.4367 17.3864 22.8471C18.0255 23.1801 18.2588 23.9411 17.9075 24.5468C17.5562 25.1525 16.7533 25.3737 16.1142 25.0407C14.9541 24.4363 13.3747 23.1153 12.1703 21.8542C11.5589 21.214 10.9892 20.5326 10.5951 19.9031C10.3994 19.5906 10.2189 19.2468 10.1101 18.8964C10.0092 18.5719 9.91457 18.0667 10.1309 17.5486C10.7318 16.1095 12.3367 15.5206 13.8302 15.3186C14.5522 15.2209 15.221 15.6964 15.324 16.3807ZM26.1075 19.4298C26.4722 18.8312 27.2798 18.6261 27.9114 18.9717C29.0405 19.5896 30.6102 20.8993 31.8192 22.1579C32.4309 22.7947 33.0027 23.4721 33.3989 24.0984C33.5956 24.4093 33.7777 24.7522 33.8879 25.1023C33.9901 25.4271 34.0863 25.9331 33.8693 26.4528C33.2684 27.8919 31.6635 28.4808 30.17 28.6828C29.4481 28.7805 28.7792 28.3049 28.6762 27.6207C28.5731 26.9364 29.0749 26.3025 29.7968 26.2048C30.7116 26.0811 31.1238 25.8472 31.3005 25.6805C31.2641 25.6048 31.2104 25.5067 31.1339 25.3856C30.8638 24.9588 30.4198 24.4193 29.8663 23.843C28.7447 22.6754 27.3864 21.5747 26.5909 21.1394C25.9593 20.7938 25.7429 20.0284 26.1075 19.4298ZM26.4023 24.0859C27.1316 24.0859 27.7228 24.6463 27.7228 25.3375C27.7228 26.5732 27.3109 28.5166 26.7654 30.1381C26.4894 30.9586 26.1563 31.7667 25.7821 32.4051C25.5964 32.7219 25.3742 33.0429 25.1093 33.3084C24.8637 33.5547 24.4494 33.8866 23.866 33.9683C22.2506 34.1947 20.9101 33.1718 19.9788 32.047C19.5285 31.5032 19.6286 30.7165 20.2024 30.2897C20.7761 29.863 21.6062 29.9579 22.0564 30.5017C22.6268 31.1906 23.0467 31.412 23.2873 31.4737C23.3383 31.4059 23.4011 31.3129 23.4734 31.1895C23.7284 30.7544 23.9994 30.1203 24.2492 29.3778C24.7553 27.8734 25.0818 26.2081 25.0818 25.3375C25.0818 24.6463 25.673 24.0859 26.4023 24.0859ZM13.5265 24.6691C14.2033 24.9266 14.5317 25.6554 14.2599 26.2969C13.9156 27.1095 13.9232 27.5648 13.9872 27.7932C14.0746 27.8012 14.191 27.8062 14.3399 27.8039C14.865 27.7956 15.5799 27.701 16.3833 27.5348C18.0109 27.198 19.6958 26.6334 20.4914 26.1981C21.1229 25.8525 21.9305 26.0575 22.2952 26.6562C22.6598 27.2548 22.4434 28.0202 21.8119 28.3658C20.6827 28.9837 18.701 29.6172 16.9466 29.9803C16.0589 30.1639 15.1539 30.2946 14.3836 30.3066C14.0012 30.3126 13.5968 30.2907 13.2218 30.2061C12.8739 30.1276 12.3635 29.9535 11.9971 29.5155C10.9826 28.3027 11.247 26.691 11.8091 25.3642C12.0808 24.7227 12.8498 24.4115 13.5265 24.6691Z" fill="white"/>
</svg>
