<svg width="48" height="48" viewBox="0 0 48 48" fill="none" xmlns="http://www.w3.org/2000/svg">
<rect width="48" height="48" rx="24" fill="white"/>
<rect x="0.5" y="0.5" width="47" height="47" rx="23.5" stroke="black" stroke-opacity="0.06"/>
<path fill-rule="evenodd" clip-rule="evenodd" d="M22.4936 12.9465C22.7737 13.0172 23.2648 13.2743 23.933 14.0814C24.4583 14.7158 25.4267 14.8265 26.0961 14.3286C26.7654 13.8308 26.8822 12.9129 26.3569 12.2785C25.2704 10.9662 23.7065 9.7729 21.8218 10.0369C21.1433 10.132 20.6599 10.5174 20.3728 10.8032C20.0628 11.1118 19.8016 11.4853 19.5826 11.8549C19.1414 12.5995 18.7473 13.5425 18.4215 14.5015C17.7797 16.3904 17.2928 18.6734 17.3252 20.1369C17.3431 20.9432 18.0472 21.583 18.8978 21.5661C19.7485 21.5492 20.4236 20.8819 20.4057 20.0757C20.3837 19.0817 20.757 17.1546 21.3543 15.3966C21.6481 14.5322 21.9683 13.7925 22.2691 13.2848C22.3566 13.1372 22.4323 13.0265 22.4936 12.9465ZM30.5384 17.5264C28.6334 17.9152 26.6859 18.5723 25.7887 19.0873C25.0609 19.5051 24.1136 19.2846 23.6729 18.5948C23.2321 17.9051 23.4647 17.0073 24.1924 16.5895C25.5135 15.8311 27.843 15.0892 29.8899 14.6716C30.9291 14.4595 31.9877 14.3115 32.8888 14.3013C33.336 14.2962 33.8078 14.3239 34.2448 14.4241C34.6495 14.5168 35.2433 14.7209 35.6695 15.2303C36.8531 16.6452 36.5446 18.5255 35.8888 20.0735C35.5718 20.8219 34.6747 21.1849 33.8851 20.8845C33.0956 20.584 32.7125 19.7337 33.0295 18.9854C33.4328 18.0334 33.4223 17.5017 33.3468 17.2364C33.2431 17.2262 33.104 17.2193 32.9255 17.2214C32.3112 17.2283 31.4752 17.3353 30.5384 17.5264ZM16.2114 17.4442C16.3316 18.2425 15.7462 18.982 14.9039 19.096C13.8324 19.241 13.3519 19.5155 13.1472 19.71C13.1897 19.8003 13.253 19.9179 13.3441 20.0634C13.6576 20.5642 14.1733 21.1969 14.8164 21.8702C16.1241 23.2395 17.6982 24.5094 18.6174 24.9883C19.3631 25.3768 19.6353 26.2646 19.2254 26.9713C18.8155 27.678 17.8788 27.9359 17.1332 27.5475C15.7797 26.8423 13.9371 25.3012 12.532 23.8299C11.8187 23.083 11.1541 22.2881 10.6942 21.5536C10.466 21.189 10.2554 20.7879 10.1284 20.3791C10.0108 20.0006 9.90033 19.4111 10.1527 18.8067C10.8538 17.1277 12.7261 16.4407 14.4685 16.205C15.3108 16.0911 16.0911 16.6459 16.2114 17.4442ZM28.7921 21.0014C29.2175 20.303 30.1597 20.0637 30.8966 20.467C32.2139 21.1878 34.0453 22.7159 35.4557 24.1842C36.1693 24.9271 36.8365 25.7175 37.2987 26.4482C37.5282 26.8108 37.7407 27.2108 37.8692 27.6193C37.9885 27.9983 38.1007 28.5886 37.8475 29.195C37.1464 30.8739 35.2741 31.5609 33.5317 31.7966C32.6894 31.9105 31.9091 31.3558 31.7889 30.5574C31.6687 29.7591 32.254 29.0196 33.0963 28.9056C34.1635 28.7612 34.6444 28.4884 34.8506 28.2939C34.8081 28.2055 34.7455 28.0911 34.6562 27.9499C34.3411 27.4519 33.8231 26.8225 33.1773 26.1502C31.8689 24.788 30.2841 23.5039 29.356 22.996C28.6191 22.5928 28.3667 21.6998 28.7921 21.0014ZM29.1361 26.4336C29.9869 26.4336 30.6767 27.0873 30.6767 27.8937C30.6767 29.3355 30.1961 31.6027 29.5596 33.4945C29.2376 34.4517 28.849 35.3945 28.4124 36.1393C28.1958 36.5089 27.9366 36.8834 27.6276 37.1931C27.341 37.4805 26.8576 37.8677 26.177 37.9631C24.2923 38.2271 22.7285 37.0338 21.6419 35.7215C21.1166 35.0871 21.2334 34.1692 21.9028 33.6714C22.5721 33.1735 23.5405 33.2842 24.0658 33.9186C24.7313 34.7224 25.2211 34.9807 25.5018 35.0527C25.5614 34.9736 25.6346 34.865 25.719 34.7211C26.0165 34.2135 26.3326 33.4736 26.6241 32.6074C27.2145 30.8523 27.5955 28.9095 27.5955 27.8937C27.5955 27.0873 28.2852 26.4336 29.1361 26.4336ZM14.1143 27.1139C14.9039 27.4144 15.2869 28.2647 14.9699 29.013C14.5682 29.9611 14.5771 30.4923 14.6517 30.7587C14.7537 30.768 14.8895 30.7739 15.0632 30.7712C15.6758 30.7616 16.5099 30.6511 17.4472 30.4572C19.346 30.0643 21.3118 29.4056 22.2399 28.8977C22.9768 28.4945 23.919 28.7338 24.3444 29.4322C24.7698 30.1306 24.5173 31.0236 23.7805 31.4268C22.4631 32.1476 20.1512 32.8868 18.1043 33.3103C17.0687 33.5246 16.0129 33.677 15.1141 33.6911C14.6681 33.6981 14.1963 33.6725 13.7588 33.5738C13.3529 33.4822 12.7574 33.2791 12.3299 32.7681C11.1464 31.3532 11.4548 29.4729 12.1106 27.9249C12.4277 27.1765 13.3247 26.8135 14.1143 27.1139Z" fill="black"/>
</svg>
