<svg width="16" height="17" viewBox="0 0 16 17" fill="none" xmlns="http://www.w3.org/2000/svg">
<path d="M4.06292 7.98578C4.02148 7.71874 3.99998 7.44516 3.99998 7.16659C3.99998 4.22107 6.40351 1.83325 9.36841 1.83325C12.3333 1.83325 14.7368 4.22107 14.7368 7.16659C14.7368 7.83197 14.6142 8.46889 14.3901 9.05625C14.3436 9.17824 14.3203 9.23924 14.3097 9.28686C14.2993 9.33404 14.2952 9.36724 14.2941 9.41555C14.2929 9.46432 14.2996 9.51803 14.3128 9.62547L14.5812 11.8056C14.6102 12.0416 14.6248 12.1596 14.5855 12.2454C14.5511 12.3206 14.49 12.3803 14.4141 12.4129C14.3274 12.4502 14.2098 12.4329 13.9745 12.3985L11.851 12.0872C11.7401 12.0709 11.6847 12.0628 11.6342 12.0631C11.5842 12.0634 11.5497 12.0671 11.5008 12.0773C11.4514 12.0877 11.3882 12.1114 11.262 12.1587C10.6731 12.3792 10.035 12.4999 9.36841 12.4999C9.08961 12.4999 8.81578 12.4788 8.54845 12.4381M5.08773 15.1666C7.06433 15.1666 8.66668 13.525 8.66668 11.4999C8.66668 9.47487 7.06433 7.83325 5.08773 7.83325C3.11113 7.83325 1.50878 9.47487 1.50878 11.4999C1.50878 11.907 1.57353 12.2985 1.69304 12.6644C1.74356 12.8191 1.76882 12.8964 1.77711 12.9492C1.78577 13.0044 1.78729 13.0353 1.78406 13.0911C1.78098 13.1444 1.76762 13.2048 1.74091 13.3255L1.33334 15.1666L3.32988 14.8939C3.43885 14.879 3.49334 14.8716 3.54092 14.8719C3.59102 14.8723 3.61761 14.875 3.66675 14.8848C3.71341 14.8941 3.78278 14.9186 3.92152 14.9675C4.28707 15.0965 4.67942 15.1666 5.08773 15.1666Z" stroke="#ACAFBE" stroke-width="1.2" stroke-linecap="round" stroke-linejoin="round"/>
</svg>
