<svg width="20" height="20" viewBox="0 0 20 20" fill="none" xmlns="http://www.w3.org/2000/svg">
<path d="M13.0438 5.52673L5.29382 13.407C5.03724 13.6901 4.89939 14.0611 4.90879 14.4431C4.9182 14.8251 5.07414 15.1889 5.34434 15.4591C5.61454 15.7293 5.9783 15.8852 6.3603 15.8946C6.7423 15.904 7.11329 15.7662 7.39646 15.5096L16.635 6.14078C17.1482 5.57444 17.4239 4.83246 17.4051 4.06846C17.3863 3.30446 17.0744 2.57695 16.534 2.03655C15.9936 1.49615 15.2661 1.18426 14.5021 1.16545C13.7381 1.14664 12.9961 1.42235 12.4298 1.9355L3.19118 11.3043C2.3547 12.1408 1.88477 13.2753 1.88477 14.4583C1.88477 15.6413 2.3547 16.7758 3.19118 17.6123C4.02766 18.4487 5.16217 18.9187 6.34514 18.9187C7.5281 18.9187 8.66261 18.4487 9.4991 17.6123L17.1374 9.99251" stroke="black" stroke-width="1.625" stroke-linecap="round" stroke-linejoin="round"/>
</svg>
