<svg width="324" height="320" viewBox="0 0 324 320" fill="none" xmlns="http://www.w3.org/2000/svg">
<g clip-path="url(#clip0_0_749)">
<path d="M0 9.40537L8.73661 0H10.1508L0 10.9278V9.40537Z" fill="#D6D6D6"/>
<path d="M0 23.1179V21.5955L20.0597 0H21.4738L0 23.1179Z" fill="#D6D6D6"/>
<path d="M0 35.3046V33.7822L31.3797 0H32.7938L0 35.3046Z" fill="#D6D6D6"/>
<path d="M0 47.4948V45.9724L42.7032 0H44.1174L0 47.4948Z" fill="#D6D6D6"/>
<path d="M0 59.6812V58.1588L54.0231 0H55.4372L0 59.6812Z" fill="#D6D6D6"/>
<path d="M0 71.8754V70.353L65.3496 0H66.7637L0 71.8754Z" fill="#D6D6D6"/>
<path d="M0 84.0545V82.5321L76.6632 0H78.0773L0 84.0545Z" fill="#D6D6D6"/>
<path d="M0 96.2443V94.7219L87.9868 0H89.401L0 96.2443Z" fill="#D6D6D6"/>
<path d="M0 108.431V106.909L99.307 0H100.721L0 108.431Z" fill="#D6D6D6"/>
<path d="M0 120.625V119.103L110.633 0H112.047L0 120.625Z" fill="#D6D6D6"/>
<path d="M0 132.812V131.289L121.953 0H123.367L0 132.812Z" fill="#D6D6D6"/>
<path d="M0 144.998V143.476L133.273 0H134.687L0 144.998Z" fill="#D6D6D6"/>
<path d="M0 157.185V155.662L144.593 0H146.007L0 157.185Z" fill="#D6D6D6"/>
<path d="M0 169.379V167.857L155.919 0H157.333L0 169.379Z" fill="#D6D6D6"/>
<path d="M0 181.566V180.044L167.239 0H168.653L0 181.566Z" fill="#D6D6D6"/>
<path d="M0 193.755V192.233L178.563 0H179.977L0 193.755Z" fill="#D6D6D6"/>
<path d="M0 205.934V204.412L189.877 0H191.291L0 205.934Z" fill="#D6D6D6"/>
<path d="M0 218.129V216.606L201.203 0H202.617L0 218.129Z" fill="#D6D6D6"/>
<path d="M0 230.315V228.793L212.523 0H213.937L0 230.315Z" fill="#D6D6D6"/>
<path d="M0 242.505V240.982L223.847 0H225.262L0 242.505Z" fill="#D6D6D6"/>
<path d="M0 254.691V253.169L235.167 0H236.582L0 254.691Z" fill="#D6D6D6"/>
<path d="M0 266.883V265.361L246.489 0H247.903L0 266.883Z" fill="#D6D6D6"/>
<path d="M0 279.07V277.548L257.809 0H259.223L0 279.07Z" fill="#D6D6D6"/>
<path d="M0 291.259V289.737L269.133 0H270.547L0 291.259Z" fill="#D6D6D6"/>
<path d="M0 303.446V301.923L280.453 0H281.867L0 303.446Z" fill="#D6D6D6"/>
<path d="M0 315.632V314.11L291.773 0H293.187L0 315.632Z" fill="#D6D6D6"/>
<path d="M0 327.819V326.297L303.093 0H304.507L0 327.819Z" fill="#D6D6D6"/>
<path d="M0 340.008V338.485L314.418 0H315.832L0 340.008Z" fill="#D6D6D6"/>
<path d="M0 352.194V350.672L325.738 0H327.152L0 352.194Z" fill="#D6D6D6"/>
<path d="M0 364.389V362.867L337.063 0H338.477L0 364.389Z" fill="#D6D6D6"/>
<path d="M0 376.574V375.051L348.378 0H349.793L0 376.574Z" fill="#D6D6D6"/>
<path d="M0 388.763V387.24L359.703 0H361.117L0 388.763Z" fill="#D6D6D6"/>
<path d="M0 400.949V399.427L371.023 0H372.437L0 400.949Z" fill="#D6D6D6"/>
<path d="M0 413.145V411.622L382.348 0H383.762L0 413.145Z" fill="#D6D6D6"/>
<path d="M0 425.331V423.809L393.668 0H395.082L0 425.331Z" fill="#D6D6D6"/>
<path d="M0 437.511V435.989L404.988 0H406.402L0 437.511Z" fill="#D6D6D6"/>
<path d="M0 449.697V448.175L416.308 0H417.722L0 449.697Z" fill="#D6D6D6"/>
<path d="M0 461.893V460.371L427.633 0H429.047L0 461.893Z" fill="#D6D6D6"/>
<path d="M0 474.08V472.557L438.953 0H440.367L0 474.08Z" fill="#D6D6D6"/>
<path d="M0 486.268V484.746L450.278 0H451.692L0 486.268Z" fill="#D6D6D6"/>
<path d="M0 498.453V496.93L461.593 0H463.007L0 498.453Z" fill="#D6D6D6"/>
<path d="M0 510.649V509.126L472.918 0H474.332L0 510.649Z" fill="#D6D6D6"/>
<path d="M0 522.835V521.313L484.238 0H485.652L0 522.835Z" fill="#D6D6D6"/>
<path d="M0 535.023V533.501L495.563 0H496.977L0 535.023Z" fill="#D6D6D6"/>
<path d="M0 547.21V545.688L506.883 0H508.297L0 547.21Z" fill="#D6D6D6"/>
<path d="M0 559.396V557.874L518.203 0H519.617L0 559.396Z" fill="#D6D6D6"/>
<path d="M0 571.583V570.061L529.523 0H530.937L0 571.583Z" fill="#D6D6D6"/>
<path d="M0 583.771V582.249L540.849 0H542.263L0 583.771Z" fill="#D6D6D6"/>
<path d="M0 595.958V594.435L552.169 0H553.583L0 595.958Z" fill="#D6D6D6"/>
<path d="M0 608.153V606.63L563.488 0H564.902L0 608.153Z" fill="#D6D6D6"/>
<path d="M0 620.34V618.818L574.813 0H576.227L0 620.34Z" fill="#D6D6D6"/>
<path d="M0 632.527V631.005L586.133 0H587.547L0 632.527Z" fill="#D6D6D6"/>
<path d="M0 644.714V643.191L597.453 0H598.867L0 644.714Z" fill="#D6D6D6"/>
<path d="M0 656.91V655.388L608.777 0H610.191L0 656.91Z" fill="#D6D6D6"/>
<path d="M0 669.088V667.565L620.099 0H621.513L0 669.088Z" fill="#D6D6D6"/>
<path d="M0 681.274V679.752L631.419 0H632.833L0 681.274Z" fill="#D6D6D6"/>
<path d="M0 693.461V691.938L642.739 0H644.153L0 693.461Z" fill="#D6D6D6"/>
<path d="M0 705.657V704.135L654.063 0H655.477L0 705.657Z" fill="#D6D6D6"/>
<path d="M0 717.845V716.322L665.389 0H666.803L0 717.845Z" fill="#D6D6D6"/>
<path d="M0 730.031V728.508L676.703 0H678.117L0 730.031Z" fill="#D6D6D6"/>
<path d="M0 742.217V740.695L688.023 0H689.437L0 742.217Z" fill="#D6D6D6"/>
<path d="M0 754.414V752.891L699.347 0H700.761L0 754.414Z" fill="#D6D6D6"/>
<path d="M0 766.601V765.079L710.673 0H712.087L0 766.601Z" fill="#D6D6D6"/>
<path d="M0 778.788V777.265L721.993 0H723.407L0 778.788Z" fill="#D6D6D6"/>
<path d="M0 790.964V789.442L733.309 0H734.724L0 790.964Z" fill="#D6D6D6"/>
<path d="M0 803.161V801.638L744.633 0H746.047L0 803.161Z" fill="#D6D6D6"/>
<path d="M0 815.348V813.826L755.96 0H757.374L0 815.348Z" fill="#D6D6D6"/>
<path d="M0 827.534V826.012L767.28 0H768.694L0 827.534Z" fill="#D6D6D6"/>
<path d="M0 839.732V838.209L778.603 0H780.017L0 839.732Z" fill="#D6D6D6"/>
<path d="M0 851.918V850.396L789.917 0H791.331L0 851.918Z" fill="#D6D6D6"/>
<path d="M0 864.105V862.582L801.243 0H802.657L0 864.105Z" fill="#D6D6D6"/>
<path d="M0 876.291V874.769L812.563 0H813.977L0 876.291Z" fill="#D6D6D6"/>
<path d="M0 888.489V886.966L823.887 0H825.301L0 888.489Z" fill="#D6D6D6"/>
<path d="M0.627308 900H0V899.153L835.206 0H836.621L0.627308 900Z" fill="#D6D6D6"/>
<path d="M11.9374 900H10.5233L846.53 0H847.944L11.9374 900Z" fill="#D6D6D6"/>
<path d="M23.2574 900H21.8433L857.85 0H859.264L23.2574 900Z" fill="#D6D6D6"/>
<path d="M34.5873 900H33.1732L869.173 0H870.587L34.5873 900Z" fill="#D6D6D6"/>
<path d="M45.9073 900H44.4932L880.493 0H881.907L45.9073 900Z" fill="#D6D6D6"/>
<path d="M57.2273 900H55.8131L891.813 0H893.227L57.2273 900Z" fill="#D6D6D6"/>
<path d="M68.5473 900H67.1332L903.133 0H904.547L68.5473 900Z" fill="#D6D6D6"/>
<path d="M79.877 900H78.4629L914.456 0H915.87L79.877 900Z" fill="#D6D6D6"/>
<path d="M91.1969 900H89.7828L925.776 0H927.19L91.1969 900Z" fill="#D6D6D6"/>
<path d="M102.517 900H101.103L937.103 0H938.517L102.517 900Z" fill="#D6D6D6"/>
<path d="M113.828 900H112.414L948.42 0H949.834L113.828 900Z" fill="#D6D6D6"/>
<path d="M125.157 900H123.743L959.743 0H961.157L125.157 900Z" fill="#D6D6D6"/>
<path d="M136.477 900H135.063L971.063 0H972.477L136.477 900Z" fill="#D6D6D6"/>
<path d="M147.798 900H146.384L982.39 0H983.805L147.798 900Z" fill="#D6D6D6"/>
<path d="M159.118 900H157.704L993.71 0H995.125L159.118 900Z" fill="#D6D6D6"/>
<path d="M170.447 900H169.033L1005.03 0H1006.44L170.447 900Z" fill="#D6D6D6"/>
<path d="M181.767 900H180.352L1016.35 0H1017.76L181.767 900Z" fill="#D6D6D6"/>
<path d="M193.087 900H191.673L1027.67 0H1029.09L193.087 900Z" fill="#D6D6D6"/>
<path d="M204.407 900H202.993L1038.99 0H1040.41L204.407 900Z" fill="#D6D6D6"/>
<path d="M215.736 900H214.322L1050.32 0H1051.73L215.736 900Z" fill="#D6D6D6"/>
<path d="M227.047 900H225.633L1061.63 0H1063.05L227.047 900Z" fill="#D6D6D6"/>
<path d="M238.368 900H236.954L1072.96 0H1074.38L238.368 900Z" fill="#D6D6D6"/>
<path d="M249.688 900H248.274L1084.28 0H1085.7L249.688 900Z" fill="#D6D6D6"/>
<path d="M261.017 900H259.603L1095.6 0H1097.02L261.017 900Z" fill="#D6D6D6"/>
<path d="M272.336 900H270.922L1106.92 0H1108.33L272.336 900Z" fill="#D6D6D6"/>
<path d="M283.657 900H282.243L1118.24 0H1119.66L283.657 900Z" fill="#D6D6D6"/>
<path d="M294.977 900H293.563L1129.56 0H1130.98L294.977 900Z" fill="#D6D6D6"/>
<path d="M306.306 900H304.892L1140.89 0H1142.3L306.306 900Z" fill="#D6D6D6"/>
<path d="M317.626 900H316.212L1152.21 0H1153.62L317.626 900Z" fill="#D6D6D6"/>
<path d="M328.939 900H327.524L1163.53 0H1164.95L328.939 900Z" fill="#D6D6D6"/>
<path d="M340.259 900H338.845L1174.85 0H1176.27L340.259 900Z" fill="#D6D6D6"/>
<path d="M351.587 900H350.173L1186.17 0H1187.59L351.587 900Z" fill="#D6D6D6"/>
<path d="M362.907 900H361.493L1197.49 0H1198.91L362.907 900Z" fill="#D6D6D6"/>
<path d="M374.229 900H372.815L1208.82 0H1210.24L374.229 900Z" fill="#D6D6D6"/>
<path d="M385.547 900H384.133L1220.13 0H1221.55L385.547 900Z" fill="#D6D6D6"/>
<path d="M396.876 900H395.462L1231.45 0H1232.87L396.876 900Z" fill="#D6D6D6"/>
<path d="M408.196 900H406.781L1242.77 0H1244.19L408.196 900Z" fill="#D6D6D6"/>
<path d="M419.517 900H418.103L1254.1 0H1255.52L419.517 900Z" fill="#D6D6D6"/>
<path d="M430.837 900H429.423L1265.42 0H1266.84L430.837 900Z" fill="#D6D6D6"/>
<path d="M442.157 900H440.743L1276.74 0H1278.16L442.157 900Z" fill="#D6D6D6"/>
<path d="M453.477 900H452.063L1288.06 0H1289.48L453.477 900Z" fill="#D6D6D6"/>
<path d="M464.799 900H463.385L1299.39 0H1300.81L464.799 900Z" fill="#D6D6D6"/>
<path d="M476.119 900H474.705L1310.71 0H1312.13L476.119 900Z" fill="#D6D6D6"/>
<path d="M487.447 900H486.033L1322.03 0H1323.45L487.447 900Z" fill="#D6D6D6"/>
<path d="M498.765 900H497.351L1333.34 0H1334.76L498.765 900Z" fill="#D6D6D6"/>
<path d="M510.087 900H508.673L1344.67 0H1346.09L510.087 900Z" fill="#D6D6D6"/>
<path d="M521.407 900H519.993L1355.99 0H1357.41L521.407 900Z" fill="#D6D6D6"/>
<path d="M532.735 900H531.321L1367.31 0H1368.73L532.735 900Z" fill="#D6D6D6"/>
<path d="M544.055 900H542.641L1378.63 0H1380.05L544.055 900Z" fill="#D6D6D6"/>
<path d="M555.37 900H553.955L1389.96 0H1391.38L555.37 900Z" fill="#D6D6D6"/>
<path d="M566.69 900H565.275L1401.28 0H1402.7L566.69 900Z" fill="#D6D6D6"/>
<path d="M578.017 900H576.603L1412.6 0H1414.02L578.017 900Z" fill="#D6D6D6"/>
<path d="M589.337 900H587.923L1423.92 0H1425.34L589.337 900Z" fill="#D6D6D6"/>
<path d="M600.657 900H599.243L1435.24 0H1436.66L600.657 900Z" fill="#D6D6D6"/>
<path d="M611.977 900H610.563L1440 7.06556V8.588L611.977 900Z" fill="#D6D6D6"/>
<path d="M623.305 900H621.891L1440 19.2531V20.7756L623.305 900Z" fill="#D6D6D6"/>
<path d="M634.625 900H633.211L1440 31.4399V32.9623L634.625 900Z" fill="#D6D6D6"/>
<path d="M645.947 900H644.533L1440 43.6362V45.1586L645.947 900Z" fill="#D6D6D6"/>
<path d="M657.26 900H655.846L1440 55.8216V57.344L657.26 900Z" fill="#D6D6D6"/>
<path d="M668.587 900H667.173L1440 68.0093V69.5317L668.587 900Z" fill="#D6D6D6"/>
<path d="M679.907 900H678.493L1440 80.1959V81.7184L679.907 900Z" fill="#D6D6D6"/>
<path d="M691.23 900H689.816L1440 92.392V93.9144L691.23 900Z" fill="#D6D6D6"/>
<path d="M702.55 900H701.136L1440 104.578V106.101L702.55 900Z" fill="#D6D6D6"/>
<path d="M713.875 900H712.46L1440 116.757V118.28L713.875 900Z" fill="#D6D6D6"/>
<path d="M725.194 900H723.78L1440 128.944V130.466L725.194 900Z" fill="#D6D6D6"/>
<path d="M736.517 900H735.103L1440 141.14V142.662L736.517 900Z" fill="#D6D6D6"/>
<path d="M747.837 900H746.423L1440 153.326V154.849L747.837 900Z" fill="#D6D6D6"/>
<path d="M759.164 900H757.75L1440 165.515V167.037L759.164 900Z" fill="#D6D6D6"/>
<path d="M770.477 900H769.063L1440 177.7V179.222L770.477 900Z" fill="#D6D6D6"/>
<path d="M781.801 900H780.386L1440 189.895V191.418L781.801 900Z" fill="#D6D6D6"/>
<path d="M793.12 900H791.706L1440 202.082V203.604L793.12 900Z" fill="#D6D6D6"/>
<path d="M804.447 900H803.033L1440 214.27V215.793L804.447 900Z" fill="#D6D6D6"/>
<path d="M815.764 900H814.35L1440 226.448V227.97L815.764 900Z" fill="#D6D6D6"/>
<path d="M827.087 900H825.673L1440 238.643V240.166L827.087 900Z" fill="#D6D6D6"/>
<path d="M838.407 900H836.993L1440 250.83V252.352L838.407 900Z" fill="#D6D6D6"/>
<path d="M849.734 900H848.32L1440 263.019V264.541L849.734 900Z" fill="#D6D6D6"/>
<path d="M861.054 900H859.64L1440 275.205V276.728L861.054 900Z" fill="#D6D6D6"/>
<path d="M872.371 900H870.957L1440 287.398V288.921L872.371 900Z" fill="#D6D6D6"/>
<path d="M883.691 900H882.277L1440 299.585V301.107L883.691 900Z" fill="#D6D6D6"/>
<path d="M895.017 900H893.603L1440 311.774V313.296L895.017 900Z" fill="#D6D6D6"/>
<path d="M906.337 900H904.923L1440 323.96V325.483L906.337 900Z" fill="#D6D6D6"/>
<path d="M917.661 900H916.247L1440 336.155V337.678L917.661 900Z" fill="#D6D6D6"/>
<path d="M928.977 900H927.563L1440 348.333V349.856L928.977 900Z" fill="#D6D6D6"/>
<path d="M940.304 900H938.889L1440 360.523V362.045L940.304 900Z" fill="#D6D6D6"/>
<path d="M951.624 900H950.209L1440 372.709V374.232L951.624 900Z" fill="#D6D6D6"/>
<path d="M962.947 900H961.533L1440 384.904V386.426L962.947 900Z" fill="#D6D6D6"/>
<path d="M974.267 900H972.853L1440 397.091V398.613L974.267 900Z" fill="#D6D6D6"/>
<path d="M985.587 900H984.173L1440 409.277V410.8L985.587 900Z" fill="#D6D6D6"/>
<path d="M996.907 900H995.493L1440 421.464V422.986L996.907 900Z" fill="#D6D6D6"/>
<path d="M1008.23 900H1006.82L1440 433.659V435.181L1008.23 900Z" fill="#D6D6D6"/>
<path d="M1019.55 900H1018.14L1440 445.845V447.368L1019.55 900Z" fill="#D6D6D6"/>
<path d="M1030.88 900H1029.46L1440 458.035V459.557L1030.88 900Z" fill="#D6D6D6"/>
<path d="M1042.19 900H1040.78L1440 470.213V471.736L1042.19 900Z" fill="#D6D6D6"/>
<path d="M1053.52 900H1052.1L1440 482.408V483.93L1053.52 900Z" fill="#D6D6D6"/>
<path d="M1064.84 900H1063.42L1440 494.594V496.117L1064.84 900Z" fill="#D6D6D6"/>
<path d="M1076.16 900H1074.75L1440 506.784V508.306L1076.16 900Z" fill="#D6D6D6"/>
<path d="M1087.48 900H1086.07L1440 518.97V520.493L1087.48 900Z" fill="#D6D6D6"/>
<path d="M1098.8 900H1097.39L1440 531.162V532.684L1098.8 900Z" fill="#D6D6D6"/>
<path d="M1110.12 900H1108.71L1440 543.348V544.871L1110.12 900Z" fill="#D6D6D6"/>
<path d="M1121.45 900H1120.03L1440 555.538V557.06L1121.45 900Z" fill="#D6D6D6"/>
<path d="M1132.77 900H1131.35L1440 567.725V569.247L1132.77 900Z" fill="#D6D6D6"/>
<path d="M1144.09 900H1142.67L1440 579.911V581.434L1144.09 900Z" fill="#D6D6D6"/>
<path d="M1155.41 900H1153.99L1440 592.098V593.62L1155.41 900Z" fill="#D6D6D6"/>
<path d="M1166.73 900H1165.32L1440 604.288V605.81L1166.73 900Z" fill="#D6D6D6"/>
<path d="M1178.05 900H1176.64L1440 616.474V617.997L1178.05 900Z" fill="#D6D6D6"/>
<path d="M1189.38 900H1187.96L1440 628.669V630.191L1189.38 900Z" fill="#D6D6D6"/>
<path d="M1200.69 900H1199.28L1440 640.852V642.374L1200.69 900Z" fill="#D6D6D6"/>
<path d="M1212.02 900H1210.6L1440 653.042V654.564L1212.02 900Z" fill="#D6D6D6"/>
<path d="M1223.34 900H1221.92L1440 665.228V666.751L1223.34 900Z" fill="#D6D6D6"/>
<path d="M1234.66 900H1233.25L1440 677.422V678.944L1234.66 900Z" fill="#D6D6D6"/>
<path d="M1245.98 900H1244.57L1440 689.609V691.131L1245.98 900Z" fill="#D6D6D6"/>
<path d="M1257.3 900H1255.89L1440 701.792V703.314L1257.3 900Z" fill="#D6D6D6"/>
<path d="M1268.62 900H1267.21L1440 713.979V715.501L1268.62 900Z" fill="#D6D6D6"/>
<path d="M1279.95 900H1278.53L1440 726.172V727.694L1279.95 900Z" fill="#D6D6D6"/>
<path d="M1291.27 900H1289.85L1440 738.359V739.881L1291.27 900Z" fill="#D6D6D6"/>
<path d="M1302.59 900H1301.18L1440 750.549V752.072L1302.59 900Z" fill="#D6D6D6"/>
<path d="M1313.91 900H1312.49L1440 762.732V764.254L1313.91 900Z" fill="#D6D6D6"/>
<path d="M1325.23 900H1323.82L1440 774.925V776.448L1325.23 900Z" fill="#D6D6D6"/>
<path d="M1336.55 900H1335.14L1440 787.112V788.634L1336.55 900Z" fill="#D6D6D6"/>
<path d="M1347.88 900H1346.46L1440 799.302V800.825L1347.88 900Z" fill="#D6D6D6"/>
<path d="M1359.2 900H1357.78L1440 811.489V813.011L1359.2 900Z" fill="#D6D6D6"/>
<path d="M1370.52 900H1369.1L1440 823.676V825.198L1370.52 900Z" fill="#D6D6D6"/>
<path d="M1381.84 900H1380.42L1440 835.862V837.385L1381.84 900Z" fill="#D6D6D6"/>
<path d="M1393.16 900H1391.75L1440 848.053V849.576L1393.16 900Z" fill="#D6D6D6"/>
<path d="M1404.48 900H1403.07L1440 860.24V861.762L1404.48 900Z" fill="#D6D6D6"/>
<path d="M1415.8 900H1414.39L1440 872.428V873.951L1415.8 900Z" fill="#D6D6D6"/>
<path d="M1427.12 900H1425.71L1440 884.615V886.137L1427.12 900Z" fill="#D6D6D6"/>
<path d="M1438.45 900H1437.03L1440 896.806V898.328L1438.45 900Z" fill="#D6D6D6"/>
</g>
<defs>
<clipPath id="clip0_0_749">
<rect width="324" height="320" fill="white"/>
</clipPath>
</defs>
</svg>
