<svg width="20" height="20" viewBox="0 0 20 20" fill="none" xmlns="http://www.w3.org/2000/svg">
<path d="M7.82921 16.1427L8.31625 17.238C8.46103 17.5641 8.69731 17.8412 8.99644 18.0356C9.29556 18.23 9.64467 18.3335 10.0014 18.3334C10.3582 18.3335 10.7073 18.23 11.0064 18.0356C11.3056 17.8412 11.5418 17.5641 11.6866 17.238L12.1737 16.1427C12.347 15.754 12.6387 15.43 13.007 15.2167C13.3776 15.0029 13.8064 14.9119 14.232 14.9566L15.4237 15.0834C15.7784 15.1209 16.1364 15.0547 16.4542 14.8929C16.7721 14.731 17.0361 14.4803 17.2144 14.1714C17.3929 13.8626 17.4779 13.5086 17.4592 13.1525C17.4404 12.7963 17.3187 12.4532 17.1088 12.1649L16.4033 11.1955C16.1521 10.8477 16.0178 10.4291 16.02 10.0001C16.0199 9.57224 16.1554 9.15537 16.407 8.80934L17.1125 7.8399C17.3224 7.55154 17.4441 7.20847 17.4629 6.85231C17.4816 6.49615 17.3966 6.1422 17.2181 5.83341C17.0398 5.52444 16.7758 5.27382 16.4579 5.11194C16.1401 4.95005 15.7821 4.88386 15.4274 4.92138L14.2357 5.04823C13.8101 5.09292 13.3813 5.00185 13.0107 4.78804C12.6416 4.57362 12.3499 4.24788 12.1774 3.85749L11.6866 2.76212C11.5418 2.43606 11.3056 2.15901 11.0064 1.96458C10.7073 1.77015 10.3582 1.66669 10.0014 1.66675C9.64467 1.66669 9.29556 1.77015 8.99644 1.96458C8.69731 2.15901 8.46103 2.43606 8.31625 2.76212L7.82921 3.85749C7.65665 4.24788 7.36494 4.57362 6.99588 4.78804C6.62522 5.00185 6.19644 5.09292 5.77088 5.04823L4.57551 4.92138C4.22078 4.88386 3.86279 4.95005 3.54494 5.11194C3.22708 5.27382 2.96302 5.52444 2.78477 5.83341C2.60628 6.1422 2.52125 6.49615 2.53999 6.85231C2.55873 7.20847 2.68043 7.55154 2.89032 7.8399L3.59588 8.80934C3.8475 9.15537 3.98299 9.57224 3.98292 10.0001C3.98299 10.4279 3.8475 10.8448 3.59588 11.1908L2.89032 12.1603C2.68043 12.4486 2.55873 12.7917 2.53999 13.1479C2.52125 13.504 2.60628 13.858 2.78477 14.1667C2.9632 14.4756 3.22729 14.726 3.5451 14.8879C3.86291 15.0498 4.22081 15.1161 4.57551 15.0788L5.76717 14.9519C6.19273 14.9072 6.62152 14.9983 6.99217 15.2121C7.36261 15.4259 7.65568 15.7517 7.82921 16.1427Z" stroke="#ACAFBE" stroke-width="1.25" stroke-linecap="round" stroke-linejoin="round"/>
<path d="M9.99994 12.5001C11.3807 12.5001 12.4999 11.3808 12.4999 10.0001C12.4999 8.61937 11.3807 7.50008 9.99994 7.50008C8.61923 7.50008 7.49994 8.61937 7.49994 10.0001C7.49994 11.3808 8.61923 12.5001 9.99994 12.5001Z" stroke="#ACAFBE" stroke-width="1.25" stroke-linecap="round" stroke-linejoin="round"/>
</svg>
