<svg width="20" height="20" viewBox="0 0 20 20" fill="none" xmlns="http://www.w3.org/2000/svg">
<path d="M15.7138 1.9882C15.7541 1.87937 15.908 1.87937 15.9483 1.9882L16.1073 2.41806C16.3606 3.10235 16.9001 3.64188 17.5844 3.89509L18.0142 4.05416C18.1231 4.09442 18.1231 4.24835 18.0142 4.28862L17.5844 4.44768C16.9001 4.70089 16.3606 5.24042 16.1073 5.92472L15.9483 6.35457C15.908 6.4634 15.7541 6.4634 15.7138 6.35457L15.5548 5.92472C15.3015 5.24042 14.762 4.70089 14.0777 4.44768L13.6479 4.28862C13.539 4.24835 13.539 4.09442 13.6479 4.05416L14.0777 3.89509C14.762 3.64188 15.3015 3.10235 15.5548 2.41806L15.7138 1.9882Z" fill="white"/>
<path d="M4.05025 13.6508C4.09052 13.542 4.24444 13.542 4.28471 13.6508L4.44377 14.0807C4.69699 14.765 5.23651 15.3045 5.92081 15.5577L6.35067 15.7168C6.45949 15.757 6.45949 15.9109 6.35067 15.9512L5.92081 16.1103C5.23651 16.3635 4.69699 16.903 4.44377 17.5873L4.28471 18.0172C4.24444 18.126 4.09052 18.126 4.05025 18.0172L3.89119 17.5873C3.63797 16.903 3.09845 16.3635 2.41415 16.1103L1.98429 15.9512C1.87547 15.9109 1.87547 15.757 1.98429 15.7168L2.41415 15.5577C3.09845 15.3045 3.63797 14.765 3.89119 14.0807L4.05025 13.6508Z" fill="white"/>
<path d="M9.84304 4.59014C9.89673 4.44504 10.102 4.44504 10.1557 4.59014L10.5111 5.55058C11.1863 7.37538 12.625 8.81412 14.4498 9.48935L15.4103 9.84475C15.5554 9.89844 15.5554 10.1037 15.4103 10.1574L14.4498 10.5128C12.625 11.188 11.1863 12.6267 10.5111 14.4515L10.1557 15.412C10.102 15.5571 9.89673 15.5571 9.84304 15.412L9.48764 14.4515C8.81241 12.6267 7.37367 11.188 5.54888 10.5128L4.58843 10.1574C4.44333 10.1037 4.44333 9.89844 4.58843 9.84475L5.54888 9.48935C7.37367 8.81412 8.81241 7.37538 9.48764 5.55059L9.84304 4.59014Z" fill="white"/>
</svg>
